<?xml version="1.0" encoding="UTF-8" standalone="no"?>
<!DOCTYPE svg PUBLIC "-//W3C//DTD SVG 1.1//EN" "http://www.w3.org/Graphics/SVG/1.1/DTD/svg11.dtd">
<svg version="1.1" xmlns="http://www.w3.org/2000/svg" xmlns:xlink="http://www.w3.org/1999/xlink" preserveAspectRatio="xMidYMid meet" viewBox="0 0 75 67" width="75" height="67"><defs><path d="M51.97 53.88C51.98 53.88 52.04 53.87 52.13 53.85C46.78 47.48 43.8 43.94 43.21 43.23C38.3 37.39 34.28 32.59 34.28 32.57C34.28 32.51 43.5 7.13 43.55 7.04C43.57 7.01 49.84 17.84 58.76 33.29C67.1 47.76 73.98 59.69 74.05 59.8C74.06 59.81 74.09 59.88 74.16 60L45.8 60L17.43 59.99L34.62 56.96C46.13 54.92 51.91 53.9 51.97 53.88ZM135.91 47.05C135.73 45.83 135.73 45.79 135.72 37.85C135.71 37.33 135.71 34.77 135.7 30.15L137.61 30.15L139.52 30.15C139.53 34.62 139.53 37.1 139.54 37.59C139.55 44.3 139.56 45.09 139.62 45.56C139.88 47.47 140.4 48.76 141.28 49.68C141.99 50.42 142.81 50.86 143.96 51.09C144.5 51.2 146.03 51.2 146.52 51.09C147.68 50.83 148.61 50.33 149.43 49.51C150.37 48.57 151.06 47.25 151.39 45.75C151.4 45.72 151.44 45.55 151.51 45.24L151.52 37.74L151.53 30.24L153.48 30.24L155.43 30.24L155.43 42.03L155.43 53.83L153.5 53.83L151.57 53.83C151.57 52.71 151.57 52.08 151.57 51.96C151.57 50.69 151.56 50.09 151.53 50.1C151.5 50.11 151.4 50.26 151.31 50.44C150.64 51.65 149.53 52.76 148.32 53.43C146.86 54.23 145.4 54.52 143.41 54.39C139.09 54.11 136.58 51.65 135.91 47.05ZM182.79 52.92C180.03 51.21 178.39 48.39 177.91 44.51C177.75 43.17 177.73 41.36 177.87 40.22C178.18 37.67 179.18 35.17 180.6 33.39C180.97 32.93 181.8 32.1 182.26 31.73C183.49 30.75 184.94 30.05 186.48 29.72C187.37 29.52 188.95 29.43 189.9 29.52C192.29 29.74 194.47 30.86 195.96 32.63C197.47 34.43 198.3 36.95 198.41 40.04C198.43 40.52 198.43 41.37 198.42 41.93C198.42 42 198.41 42.33 198.4 42.94L190.03 42.95L181.67 42.96C181.67 43.18 181.67 43.31 181.67 43.33C181.67 44.47 181.95 45.76 182.42 46.86C182.84 47.81 183.54 48.85 184.12 49.35C185.32 50.38 186.77 50.99 188.37 51.14C188.96 51.2 190.46 51.14 191.14 51.04C193.06 50.74 194.88 49.99 196.36 48.88C196.53 48.75 196.7 48.63 196.73 48.61C196.77 48.58 196.78 48.92 196.78 50.35C196.78 50.47 196.78 51.06 196.78 52.13C196.54 52.28 196.41 52.36 196.38 52.37C194.72 53.41 192.8 54.07 190.78 54.32C190.18 54.39 187.96 54.42 187.24 54.37C185.71 54.25 184.11 53.73 182.79 52.92ZM194.52 39.39C194.52 37.49 193.71 35.38 192.58 34.29C191.77 33.51 190.79 33.03 189.62 32.85C189.07 32.77 187.91 32.8 187.33 32.92C186.11 33.17 185.09 33.71 184.2 34.58C183.27 35.5 182.57 36.62 182.13 37.9C181.98 38.35 181.79 39.11 181.73 39.52C181.73 39.54 181.72 39.6 181.71 39.72L188.11 39.72L194.52 39.72C194.52 39.55 194.52 39.44 194.52 39.39ZM87.37 37.2C87.79 36.09 89.89 30.58 93.66 20.67L95.68 20.67L97.71 20.67C97.81 20.92 97.86 21.07 97.87 21.1C98.39 22.41 110.47 53.79 110.47 53.81C110.47 53.82 109.51 53.83 108.32 53.83C108.18 53.83 107.46 53.83 106.17 53.83L104.43 49.19L102.69 44.55L95.67 44.55L88.66 44.55C88.62 44.65 88.6 44.7 88.6 44.71C88.56 44.8 87.82 46.88 86.94 49.35C86.84 49.65 86.31 51.14 85.35 53.83C84.06 53.83 83.34 53.83 83.19 53.83C81.49 53.83 81.04 53.82 81.06 53.78C81.07 53.75 83.91 46.29 87.37 37.2ZM98.8 33.95C96.12 26.7 95.97 26.26 95.76 25.09C95.66 24.55 95.61 24.53 95.55 25.03C95.51 25.39 95.33 26.18 95.18 26.63C95.11 26.85 93.91 30.16 92.5 33.99C91.1 37.82 89.95 40.97 89.95 40.99C89.95 41.01 92.52 41.03 95.68 41.03C98.83 41.03 101.41 41.02 101.41 41.01C101.41 41 100.23 37.83 98.8 33.95ZM111.78 53.23L111.78 52.62L118.76 43.01L125.75 33.41L119.43 33.39L113.1 33.36L113.09 31.76L113.08 30.15L122.23 30.15L131.38 30.15L131.38 30.7L131.38 31.24C127.19 37.03 124.86 40.25 124.39 40.9C120.55 46.21 117.4 50.57 117.4 50.58C117.4 50.59 120.51 50.6 124.31 50.6C124.77 50.6 127.07 50.6 131.21 50.6L131.21 52.21L131.21 53.83L121.49 53.83L111.78 53.83L111.78 53.23ZM163.03 41.96C163.03 41.18 163.03 37.24 163.03 30.15L164.94 30.15L166.85 30.15C166.85 31.61 166.85 32.43 166.85 32.59C166.85 33.93 166.87 35.02 166.89 35.02C166.91 35.02 167 34.8 167.09 34.54C167.52 33.31 168.27 32.16 169.23 31.25C170.09 30.43 171.08 29.94 172.25 29.75C172.57 29.7 172.85 29.69 173.51 29.7C174.33 29.72 174.76 29.78 175.26 29.95C175.27 29.95 175.32 29.97 175.42 30L175.42 31.98L175.42 33.96C175.14 33.83 174.99 33.75 174.96 33.74C174.17 33.34 173.38 33.18 172.43 33.23C171.82 33.26 171.42 33.34 170.92 33.53C169.91 33.91 169.09 34.58 168.52 35.49C167.69 36.82 167.09 38.52 166.92 40.09C166.89 40.37 166.87 42.65 166.86 47.17C166.86 47.61 166.86 49.83 166.85 53.83C165.72 53.83 165.09 53.83 164.97 53.83C163.93 53.83 163.07 53.82 163.06 53.8C163.04 53.79 163.03 48.46 163.03 41.96ZM9.92 37.49C10.54 36.41 13.66 31.01 19.27 21.3C25.8 15.81 29.43 12.76 30.16 12.15C36.15 7.13 41.07 3.01 41.09 3C41.11 2.99 41.03 3.19 40.91 3.44C40.8 3.69 35.47 15.11 29.08 28.81C28.31 30.47 24.44 38.78 17.47 53.72C12.4 53.73 9.58 53.73 9.02 53.73C4.37 53.74 0.57 53.73 0.57 53.72C0.57 53.7 4.78 46.4 9.92 37.49Z" id="c1w9vVXhGd"></path></defs><g><g><use xlink:href="#c1w9vVXhGd" opacity="1" fill="#0089d6" fill-opacity="1"></use><g><use xlink:href="#c1w9vVXhGd" opacity="1" fill-opacity="0" stroke="#000000" stroke-width="0.28" stroke-opacity="0"></use></g></g></g></svg>