<?xml version="1.0" encoding="iso-8859-1"?>
<!-- Generator: Adobe Illustrator 19.0.0, SVG Export Plug-In . SVG Version: 6.00 Build 0)  -->
<svg version="1.1" id="Capa_1" xmlns="http://www.w3.org/2000/svg" xmlns:xlink="http://www.w3.org/1999/xlink" x="0px" y="0px"
	 viewBox="0 0 481.244 481.244" style="enable-background:new 0 0 481.244 481.244;" xml:space="preserve">
<g id="XMLID_794_">
	<path fill="lightgray" id="XMLID_795_" d="M 478.894 236.05 c -19.863 -38.644 -49.88 -71.234 -86.805 -94.249 c -37.975 -23.669 -81.812 -36.18 -126.772 -36.18 c -60.691 0 -117.793 22.298 -162.151 63.057 c -20.423 -29.236 -52.57 -48.743 -88.216 -52.987 l -8.652 -1.03 l -2.205 8.429 C 1.377 133.472 0 144.211 0 155.011 c 0 31.792 12.143 62.445 33.623 85.611 C 12.143 263.788 0 294.441 0 326.233 c 0 10.8 1.377 21.539 4.092 31.92 l 2.205 8.429 l 8.652 -1.03 c 35.646 -4.244 67.793 -23.75 88.216 -52.987 c 44.358 40.759 101.46 63.057 162.151 63.057 c 44.961 0 88.798 -12.511 126.772 -36.18 c 36.925 -23.014 66.941 -55.605 86.805 -94.249 l 2.351 -4.572"/>
</g>
</svg>
