<?xml version="1.0" encoding="UTF-8" standalone="no"?>
<!DOCTYPE svg PUBLIC "-//W3C//DTD SVG 1.1//EN" "http://www.w3.org/Graphics/SVG/1.1/DTD/svg11.dtd">
<svg version="1.1" xmlns="http://www.w3.org/2000/svg" xmlns:xlink="http://www.w3.org/1999/xlink" preserveAspectRatio="xMidYMid meet" viewBox="0 0 70 70" width="70" height="70"><defs><path d="M18.21 56.28C18.21 56.28 18.91 55.98 19.81 55.67C27.16 53.13 30.63 52.62 35.1 50.32C43.49 46.03 51.84 36.66 53.54 26.94C50.35 36.29 40.63 44.34 31.79 47.61C25.74 49.85 14.79 52.02 14.79 52.02C14.79 52.03 14.35 51.79 14.35 51.79C6.9 48.16 6.69 32.04 20.21 26.84C26.13 24.56 31.81 25.82 38.21 24.29C45.05 22.66 52.96 17.54 56.18 10.84C59.79 21.54 64.12 38.28 56.35 48.63C48.71 58.81 32.39 55.38 21.93 55.87C21.19 55.95 20.07 55.97 18.21 56.28ZM56.48 7.53C55.57 9.69 54.46 11.64 53.18 13.38C47.55 7.6 39.69 4 31 4C13.91 4 0 17.9 0 34.99C0 43.95 3.83 52.03 9.92 57.69C9.99 57.75 10.53 58.23 10.6 58.29C9.47 57.37 9.29 55.71 10.21 54.57C11.14 53.44 12.8 53.26 13.94 54.18C15.08 55.1 15.25 56.77 14.33 57.91C13.41 59.04 11.74 59.22 10.61 58.3C10.65 58.34 11.02 58.67 11.07 58.71C16.46 63.25 23.41 65.99 31 65.99C47.34 65.99 60.75 53.28 61.9 37.23C62.75 29.37 60.43 19.39 56.48 7.53" id="c2O4HWpvON"></path><path d="M18.21 56.28C18.21 56.28 18.91 55.98 19.81 55.67C27.16 53.13 30.63 52.62 35.1 50.32C43.49 46.03 51.84 36.66 53.54 26.94C50.35 36.29 40.63 44.34 31.79 47.61C25.74 49.85 14.79 52.02 14.79 52.02C14.79 52.03 14.35 51.79 14.35 51.79C6.9 48.16 6.69 32.04 20.21 26.84C26.13 24.56 31.81 25.82 38.21 24.29C45.05 22.66 52.96 17.54 56.18 10.84C59.79 21.54 64.12 38.28 56.35 48.63C48.71 58.81 32.39 55.38 21.93 55.87C21.19 55.95 20.07 55.97 18.21 56.28ZM56.48 7.53C55.57 9.69 54.46 11.64 53.18 13.38C47.55 7.6 39.69 4 31 4C13.91 4 0 17.9 0 34.99C0 43.95 3.83 52.03 9.92 57.69C9.99 57.75 10.53 58.23 10.6 58.29C9.47 57.37 9.29 55.71 10.21 54.57C11.14 53.44 12.8 53.26 13.94 54.18C15.08 55.1 15.25 56.77 14.33 57.91C13.41 59.04 11.74 59.22 10.61 58.3C10.65 58.34 11.02 58.67 11.07 58.71C16.46 63.25 23.41 65.99 31 65.99C47.34 65.99 60.75 53.28 61.9 37.23C62.75 29.37 60.43 19.39 56.48 7.53" id="c1mgNp1ls"></path><path d="M64.83 15.05C65.48 15.05 65.84 15.05 65.91 15.05C66.26 15.05 66.64 14.77 66.64 14.35C66.64 13.9 66.26 13.62 65.91 13.62C65.76 13.62 65.4 13.62 64.83 13.62C64.83 13.91 64.83 14.91 64.83 15.05ZM65.53 15.57L64.83 15.57L64.83 17.16L64.26 17.16C64.26 14.74 64.26 13.39 64.26 13.12C65.25 13.12 65.8 13.12 65.91 13.12C66.59 13.12 67.23 13.6 67.23 14.35C67.23 15.25 66.42 15.55 66.19 15.55C66.26 15.66 66.63 16.2 67.28 17.16C67.23 17.16 67 17.16 66.58 17.16L65.53 15.57ZM65.61 18.13C67.26 18.13 68.61 16.78 68.61 15.13C68.61 13.47 67.26 12.13 65.61 12.13C63.94 12.13 62.61 13.47 62.61 15.13C62.61 16.78 63.94 18.13 65.61 18.13ZM65.61 18.67C63.66 18.67 62.08 17.08 62.08 15.13C62.08 13.17 63.66 11.6 65.61 11.6C67.58 11.6 69.14 13.17 69.14 15.13C69.14 17.08 67.58 18.67 65.61 18.67" id="bKSJnqtHm"></path><path d="M64.83 15.05C65.48 15.05 65.84 15.05 65.91 15.05C66.26 15.05 66.64 14.77 66.64 14.35C66.64 13.9 66.26 13.62 65.91 13.62C65.76 13.62 65.4 13.62 64.83 13.62C64.83 13.91 64.83 14.91 64.83 15.05ZM65.53 15.57L64.83 15.57L64.83 17.16L64.26 17.16C64.26 14.74 64.26 13.39 64.26 13.12C65.25 13.12 65.8 13.12 65.91 13.12C66.59 13.12 67.23 13.6 67.23 14.35C67.23 15.25 66.42 15.55 66.19 15.55C66.26 15.66 66.63 16.2 67.28 17.16C67.23 17.16 67 17.16 66.58 17.16L65.53 15.57ZM65.61 18.13C67.26 18.13 68.61 16.78 68.61 15.13C68.61 13.47 67.26 12.13 65.61 12.13C63.94 12.13 62.61 13.47 62.61 15.13C62.61 16.78 63.94 18.13 65.61 18.13ZM65.61 18.67C63.66 18.67 62.08 17.08 62.08 15.13C62.08 13.17 63.66 11.6 65.61 11.6C67.58 11.6 69.14 13.17 69.14 15.13C69.14 17.08 67.58 18.67 65.61 18.67" id="b1VPYsmyga"></path></defs><g><g><g><use xlink:href="#c2O4HWpvON" opacity="1" fill="#5fb832" fill-opacity="1"></use><g><use xlink:href="#c2O4HWpvON" opacity="1" fill-opacity="0" stroke="#000000" stroke-width="1" stroke-opacity="0"></use></g></g><g><use xlink:href="#c1mgNp1ls" opacity="1" fill="#000000" fill-opacity="0"></use><g><use xlink:href="#c1mgNp1ls" opacity="1" fill-opacity="0" stroke="#000000" stroke-width="1" stroke-opacity="0"></use></g></g><g><use xlink:href="#bKSJnqtHm" opacity="1" fill="#5fb832" fill-opacity="1"></use><g><use xlink:href="#bKSJnqtHm" opacity="1" fill-opacity="0" stroke="#000000" stroke-width="1" stroke-opacity="0"></use></g></g><g><use xlink:href="#b1VPYsmyga" opacity="1" fill="#000000" fill-opacity="0"></use><g><use xlink:href="#b1VPYsmyga" opacity="1" fill-opacity="0" stroke="#000000" stroke-width="1" stroke-opacity="0"></use></g></g></g></g></svg>