<?xml version="1.0" encoding="UTF-8" standalone="no"?>
<!DOCTYPE svg PUBLIC "-//W3C//DTD SVG 1.1//EN" "http://www.w3.org/Graphics/SVG/1.1/DTD/svg11.dtd">
<svg version="1.1" xmlns="http://www.w3.org/2000/svg" xmlns:xlink="http://www.w3.org/1999/xlink" preserveAspectRatio="xMidYMid meet" viewBox="0 0 70 70" width="70" height="70"><defs><path d="M23.8 51.88C23.8 51.88 21.94 51.98 20.08 52.29C20.08 52.29 20.78 51.99 21.68 51.68C29.03 49.14 32.5 48.63 36.97 46.33C45.36 42.04 53.71 32.67 55.41 22.95C52.22 32.3 42.5 40.35 33.66 43.62C27.61 45.86 16.66 48.03 16.66 48.03C16.66 48.04 16.22 47.8 16.22 47.8C8.77 44.17 8.56 28.05 22.08 22.85C28 20.57 33.68 21.83 40.08 20.3C46.92 18.67 54.83 13.55 58.05 6.85C61.66 17.55 65.99 34.29 58.22 44.64C50.58 54.82 34.26 51.39 23.8 51.88ZM58.35 3.54C57.44 5.7 56.33 7.65 55.05 9.39C49.42 3.61 41.56 0.01 32.87 0.01C15.78 0.01 1.87 13.91 1.87 31C1.87 39.96 5.7 48.04 11.79 53.7C11.86 53.76 12.4 54.24 12.47 54.3C11.34 53.38 11.16 51.72 12.08 50.58C13.01 49.45 14.67 49.27 15.81 50.19C16.95 51.11 17.12 52.78 16.2 53.92C15.28 55.05 13.61 55.23 12.48 54.31C12.52 54.35 12.89 54.68 12.94 54.72C18.33 59.26 25.28 62 32.87 62C49.21 62 62.62 49.29 63.77 33.24C64.62 25.38 62.3 15.4 58.35 3.54" id="alm0K2Xwk"></path><path d="M66.7 9.63L66.7 11.06C67.35 11.06 67.71 11.06 67.78 11.06C68.13 11.06 68.51 10.78 68.51 10.36C68.51 9.91 68.13 9.63 67.78 9.63C67.63 9.63 67.27 9.63 66.7 9.63ZM68.45 13.17L67.4 11.58L66.7 11.58L66.7 13.17L66.13 13.17L66.13 9.13C67.12 9.13 67.67 9.13 67.78 9.13C68.46 9.13 69.1 9.61 69.1 10.36C69.1 11.26 68.29 11.56 68.06 11.56C68.13 11.67 68.5 12.21 69.15 13.17L68.45 13.17ZM64.48 11.14C64.48 12.79 65.81 14.14 67.48 14.14C69.13 14.14 70.48 12.79 70.48 11.14C70.48 9.48 69.13 8.14 67.48 8.14C65.81 8.14 64.48 9.48 64.48 11.14ZM67.48 14.68C65.53 14.68 63.95 13.09 63.95 11.14C63.95 9.18 65.53 7.61 67.48 7.61C69.45 7.61 71.01 9.18 71.01 11.14C71.01 13.09 69.45 14.68 67.48 14.68" id="a4RHCiuaGe"></path></defs><g><g><g><use xlink:href="#alm0K2Xwk" opacity="1" fill="#5fb832" fill-opacity="1"></use><g><use xlink:href="#alm0K2Xwk" opacity="1" fill-opacity="0" stroke="#000000" stroke-width="1" stroke-opacity="0"></use></g></g><g><use xlink:href="#a4RHCiuaGe" opacity="1" fill="#5fb832" fill-opacity="1"></use><g><use xlink:href="#a4RHCiuaGe" opacity="1" fill-opacity="0" stroke="#000000" stroke-width="1" stroke-opacity="0"></use></g></g></g></g></svg>