<svg xmlns="http://www.w3.org/2000/svg" viewBox="0 0 720 444" role="img" aria-label="Opening the box, for the text go. Inside MiniGPT, opened: token and position embeddings, then 4 blocks of attention and MLP, then the final normalisation, giving the final hidden state, 128 numbers drawn as small squares, then lm_head, 65 rows of 128 numbers plus 65 biases. Out come the same 65 scores, the logits, for the next letter: o 4.878, space 4.076, d 4.062, n 3.068, and 60 more, down to V at minus 7.421. Then, exactly as before, temperature, top-k, softmax, and a spin of the wheel. For o, the row times the final hidden state gives 4.845, and o's bias adds 0.033, a score of 4.878." font-family="system-ui, -apple-system, 'Segoe UI', Roboto, sans-serif" style="max-width:100%;height:auto"><rect width="720" height="444" fill="#ffffff"/><text x="40" y="30" font-size="16" fill="#111827" text-anchor="start" font-weight="600">Opening the box: where the 65 scores (logits) come from</text><text x="40" y="50" font-size="12" fill="#6b7280" text-anchor="start" font-weight="normal">The same text, and the same scores, as the closed box. Real numbers from my trained model.</text><rect x="40" y="76" width="64" height="150" rx="10" fill="#f9fafb" stroke="#d1d5db" stroke-width="1"/><text x="72" y="100" font-size="11" fill="#6b7280" text-anchor="middle" font-weight="normal">the text</text><text x="72" y="160" font-size="22" fill="#111827" text-anchor="middle" font-weight="700" font-family="ui-monospace, Menlo, Consolas, monospace">go</text><line x1="104" y1="151" x2="112.0" y2="151.0" stroke="#6b7280" stroke-width="1.8"/><path d="M120 151 L112.0 155.5 L112.0 146.5 Z" fill="#6b7280"/><rect x="122" y="76" width="558" height="150" rx="10" fill="#f3f4f6" stroke="#111827" stroke-width="1.5" stroke-dasharray="6 4"/><text x="136" y="96" font-size="12" fill="#111827" text-anchor="start" font-weight="700">MiniGPT, opened</text><text x="668" y="96" font-size="10" fill="#6b7280" text-anchor="end" font-weight="normal">826,433 trained parameters</text><rect x="134" y="108" width="84" height="106" rx="10" fill="#ffffff" stroke="#d1d5db" stroke-width="1"/><text x="176.0" y="146" font-size="11" fill="#111827" text-anchor="middle" font-weight="700">token and</text><text x="176.0" y="162" font-size="11" fill="#111827" text-anchor="middle" font-weight="700">position</text><text x="176.0" y="178" font-size="11" fill="#111827" text-anchor="middle" font-weight="700">embeddings</text><line x1="218" y1="161" x2="224.0" y2="161.0" stroke="#6b7280" stroke-width="1.8"/><path d="M232 161 L224.0 165.5 L224.0 156.5 Z" fill="#6b7280"/><rect x="234" y="108" width="70" height="106" rx="10" fill="#ffffff" stroke="#d1d5db" stroke-width="1"/><text x="269.0" y="146" font-size="11" fill="#111827" text-anchor="middle" font-weight="700">4 blocks</text><text x="269.0" y="162" font-size="10" fill="#6b7280" text-anchor="middle" font-weight="normal">attention,</text><text x="269.0" y="178" font-size="10" fill="#6b7280" text-anchor="middle" font-weight="normal">MLP</text><line x1="304" y1="161" x2="308.0" y2="161.0" stroke="#6b7280" stroke-width="1.8"/><path d="M316 161 L308.0 165.5 L308.0 156.5 Z" fill="#6b7280"/><rect x="318" y="108" width="74" height="106" rx="10" fill="#ffffff" stroke="#d1d5db" stroke-width="1"/><text x="355.0" y="146" font-size="11" fill="#111827" text-anchor="middle" font-weight="700">final</text><text x="355.0" y="162" font-size="11" fill="#111827" text-anchor="middle" font-weight="700">normal-</text><text x="355.0" y="178" font-size="11" fill="#111827" text-anchor="middle" font-weight="700">isation</text><line x1="392" y1="161" x2="396.0" y2="161.0" stroke="#6b7280" stroke-width="1.8"/><path d="M404 161 L396.0 165.5 L396.0 156.5 Z" fill="#6b7280"/><rect x="406" y="108" width="118" height="106" rx="10" fill="#ffffff" stroke="#d1d5db" stroke-width="1"/><text x="465" y="124" font-size="10" fill="#111827" text-anchor="middle" font-weight="700">final hidden state</text><rect x="413.8" y="134.0" width="5.6" height="5.6" fill="rgba(234,88,12,0.09)"/><rect x="420.2" y="134.0" width="5.6" height="5.6" fill="rgba(37,99,235,0.28)"/><rect x="426.6" y="134.0" width="5.6" height="5.6" fill="rgba(37,99,235,0.03)"/><rect x="433.0" y="134.0" width="5.6" height="5.6" fill="rgba(234,88,12,0.16)"/><rect x="439.4" y="134.0" width="5.6" height="5.6" fill="rgba(37,99,235,0.22)"/><rect x="445.8" y="134.0" width="5.6" height="5.6" fill="rgba(234,88,12,0.26)"/><rect x="452.2" y="134.0" width="5.6" height="5.6" fill="rgba(234,88,12,0.33)"/><rect x="458.6" y="134.0" width="5.6" height="5.6" fill="rgba(234,88,12,0.12)"/><rect x="465.0" y="134.0" width="5.6" height="5.6" fill="rgba(37,99,235,0.10)"/><rect x="471.4" y="134.0" width="5.6" height="5.6" fill="rgba(234,88,12,0.05)"/><rect x="477.8" y="134.0" width="5.6" height="5.6" fill="rgba(37,99,235,0.84)"/><rect x="484.2" y="134.0" width="5.6" height="5.6" fill="rgba(37,99,235,0.09)"/><rect x="490.6" y="134.0" width="5.6" height="5.6" fill="rgba(234,88,12,0.35)"/><rect x="497.0" y="134.0" width="5.6" height="5.6" fill="rgba(234,88,12,0.47)"/><rect x="503.4" y="134.0" width="5.6" height="5.6" fill="rgba(234,88,12,0.23)"/><rect x="509.8" y="134.0" width="5.6" height="5.6" fill="rgba(37,99,235,0.03)"/><rect x="413.8" y="140.4" width="5.6" height="5.6" fill="rgba(234,88,12,0.07)"/><rect x="420.2" y="140.4" width="5.6" height="5.6" fill="rgba(37,99,235,0.56)"/><rect x="426.6" y="140.4" width="5.6" height="5.6" fill="rgba(37,99,235,0.06)"/><rect x="433.0" y="140.4" width="5.6" height="5.6" fill="rgba(234,88,12,0.45)"/><rect x="439.4" y="140.4" width="5.6" height="5.6" fill="rgba(37,99,235,0.27)"/><rect x="445.8" y="140.4" width="5.6" height="5.6" fill="rgba(234,88,12,1.00)"/><rect x="452.2" y="140.4" width="5.6" height="5.6" fill="rgba(234,88,12,0.52)"/><rect x="458.6" y="140.4" width="5.6" height="5.6" fill="rgba(37,99,235,0.22)"/><rect x="465.0" y="140.4" width="5.6" height="5.6" fill="rgba(234,88,12,0.41)"/><rect x="471.4" y="140.4" width="5.6" height="5.6" fill="rgba(234,88,12,0.31)"/><rect x="477.8" y="140.4" width="5.6" height="5.6" fill="rgba(234,88,12,0.38)"/><rect x="484.2" y="140.4" width="5.6" height="5.6" fill="rgba(234,88,12,0.02)"/><rect x="490.6" y="140.4" width="5.6" height="5.6" fill="rgba(234,88,12,0.10)"/><rect x="497.0" y="140.4" width="5.6" height="5.6" fill="rgba(37,99,235,0.45)"/><rect x="503.4" y="140.4" width="5.6" height="5.6" fill="rgba(37,99,235,0.28)"/><rect x="509.8" y="140.4" width="5.6" height="5.6" fill="rgba(37,99,235,0.64)"/><rect x="413.8" y="146.8" width="5.6" height="5.6" fill="rgba(37,99,235,0.44)"/><rect x="420.2" y="146.8" width="5.6" height="5.6" fill="rgba(234,88,12,0.53)"/><rect x="426.6" y="146.8" width="5.6" height="5.6" fill="rgba(234,88,12,0.41)"/><rect x="433.0" y="146.8" width="5.6" height="5.6" fill="rgba(37,99,235,0.43)"/><rect x="439.4" y="146.8" width="5.6" height="5.6" fill="rgba(37,99,235,0.45)"/><rect x="445.8" y="146.8" width="5.6" height="5.6" fill="rgba(234,88,12,1.00)"/><rect x="452.2" y="146.8" width="5.6" height="5.6" fill="rgba(37,99,235,0.34)"/><rect x="458.6" y="146.8" width="5.6" height="5.6" fill="rgba(234,88,12,0.51)"/><rect x="465.0" y="146.8" width="5.6" height="5.6" fill="rgba(234,88,12,0.85)"/><rect x="471.4" y="146.8" width="5.6" height="5.6" fill="rgba(37,99,235,0.25)"/><rect x="477.8" y="146.8" width="5.6" height="5.6" fill="rgba(234,88,12,0.38)"/><rect x="484.2" y="146.8" width="5.6" height="5.6" fill="rgba(37,99,235,0.09)"/><rect x="490.6" y="146.8" width="5.6" height="5.6" fill="rgba(37,99,235,0.47)"/><rect x="497.0" y="146.8" width="5.6" height="5.6" fill="rgba(234,88,12,0.40)"/><rect x="503.4" y="146.8" width="5.6" height="5.6" fill="rgba(37,99,235,0.38)"/><rect x="509.8" y="146.8" width="5.6" height="5.6" fill="rgba(234,88,12,0.37)"/><rect x="413.8" y="153.2" width="5.6" height="5.6" fill="rgba(234,88,12,0.17)"/><rect x="420.2" y="153.2" width="5.6" height="5.6" fill="rgba(234,88,12,0.35)"/><rect x="426.6" y="153.2" width="5.6" height="5.6" fill="rgba(234,88,12,0.53)"/><rect x="433.0" y="153.2" width="5.6" height="5.6" fill="rgba(37,99,235,0.16)"/><rect x="439.4" y="153.2" width="5.6" height="5.6" fill="rgba(37,99,235,0.06)"/><rect x="445.8" y="153.2" width="5.6" height="5.6" fill="rgba(234,88,12,0.24)"/><rect x="452.2" y="153.2" width="5.6" height="5.6" fill="rgba(234,88,12,0.21)"/><rect x="458.6" y="153.2" width="5.6" height="5.6" fill="rgba(37,99,235,0.43)"/><rect x="465.0" y="153.2" width="5.6" height="5.6" fill="rgba(234,88,12,0.44)"/><rect x="471.4" y="153.2" width="5.6" height="5.6" fill="rgba(37,99,235,0.76)"/><rect x="477.8" y="153.2" width="5.6" height="5.6" fill="rgba(234,88,12,0.37)"/><rect x="484.2" y="153.2" width="5.6" height="5.6" fill="rgba(234,88,12,0.18)"/><rect x="490.6" y="153.2" width="5.6" height="5.6" fill="rgba(234,88,12,1.00)"/><rect x="497.0" y="153.2" width="5.6" height="5.6" fill="rgba(37,99,235,0.12)"/><rect x="503.4" y="153.2" width="5.6" height="5.6" fill="rgba(37,99,235,0.58)"/><rect x="509.8" y="153.2" width="5.6" height="5.6" fill="rgba(234,88,12,0.03)"/><rect x="413.8" y="159.6" width="5.6" height="5.6" fill="rgba(37,99,235,0.10)"/><rect x="420.2" y="159.6" width="5.6" height="5.6" fill="rgba(37,99,235,0.06)"/><rect x="426.6" y="159.6" width="5.6" height="5.6" fill="rgba(37,99,235,0.49)"/><rect x="433.0" y="159.6" width="5.6" height="5.6" fill="rgba(234,88,12,0.76)"/><rect x="439.4" y="159.6" width="5.6" height="5.6" fill="rgba(234,88,12,0.61)"/><rect x="445.8" y="159.6" width="5.6" height="5.6" fill="rgba(37,99,235,0.21)"/><rect x="452.2" y="159.6" width="5.6" height="5.6" fill="rgba(234,88,12,0.03)"/><rect x="458.6" y="159.6" width="5.6" height="5.6" fill="rgba(234,88,12,1.00)"/><rect x="465.0" y="159.6" width="5.6" height="5.6" fill="rgba(234,88,12,0.92)"/><rect x="471.4" y="159.6" width="5.6" height="5.6" fill="rgba(37,99,235,0.57)"/><rect x="477.8" y="159.6" width="5.6" height="5.6" fill="rgba(234,88,12,0.49)"/><rect x="484.2" y="159.6" width="5.6" height="5.6" fill="rgba(37,99,235,0.67)"/><rect x="490.6" y="159.6" width="5.6" height="5.6" fill="rgba(234,88,12,0.21)"/><rect x="497.0" y="159.6" width="5.6" height="5.6" fill="rgba(234,88,12,0.37)"/><rect x="503.4" y="159.6" width="5.6" height="5.6" fill="rgba(234,88,12,0.45)"/><rect x="509.8" y="159.6" width="5.6" height="5.6" fill="rgba(37,99,235,0.44)"/><rect x="413.8" y="166.0" width="5.6" height="5.6" fill="rgba(234,88,12,0.81)"/><rect x="420.2" y="166.0" width="5.6" height="5.6" fill="rgba(37,99,235,0.14)"/><rect x="426.6" y="166.0" width="5.6" height="5.6" fill="rgba(37,99,235,0.66)"/><rect x="433.0" y="166.0" width="5.6" height="5.6" fill="rgba(37,99,235,0.53)"/><rect x="439.4" y="166.0" width="5.6" height="5.6" fill="rgba(37,99,235,0.14)"/><rect x="445.8" y="166.0" width="5.6" height="5.6" fill="rgba(234,88,12,0.43)"/><rect x="452.2" y="166.0" width="5.6" height="5.6" fill="rgba(37,99,235,1.00)"/><rect x="458.6" y="166.0" width="5.6" height="5.6" fill="rgba(234,88,12,0.01)"/><rect x="465.0" y="166.0" width="5.6" height="5.6" fill="rgba(37,99,235,0.48)"/><rect x="471.4" y="166.0" width="5.6" height="5.6" fill="rgba(37,99,235,1.00)"/><rect x="477.8" y="166.0" width="5.6" height="5.6" fill="rgba(234,88,12,0.84)"/><rect x="484.2" y="166.0" width="5.6" height="5.6" fill="rgba(234,88,12,0.06)"/><rect x="490.6" y="166.0" width="5.6" height="5.6" fill="rgba(37,99,235,0.17)"/><rect x="497.0" y="166.0" width="5.6" height="5.6" fill="rgba(37,99,235,0.42)"/><rect x="503.4" y="166.0" width="5.6" height="5.6" fill="rgba(37,99,235,0.15)"/><rect x="509.8" y="166.0" width="5.6" height="5.6" fill="rgba(234,88,12,0.52)"/><rect x="413.8" y="172.4" width="5.6" height="5.6" fill="rgba(37,99,235,0.47)"/><rect x="420.2" y="172.4" width="5.6" height="5.6" fill="rgba(37,99,235,0.44)"/><rect x="426.6" y="172.4" width="5.6" height="5.6" fill="rgba(37,99,235,0.42)"/><rect x="433.0" y="172.4" width="5.6" height="5.6" fill="rgba(234,88,12,0.59)"/><rect x="439.4" y="172.4" width="5.6" height="5.6" fill="rgba(37,99,235,0.08)"/><rect x="445.8" y="172.4" width="5.6" height="5.6" fill="rgba(234,88,12,0.97)"/><rect x="452.2" y="172.4" width="5.6" height="5.6" fill="rgba(37,99,235,0.39)"/><rect x="458.6" y="172.4" width="5.6" height="5.6" fill="rgba(234,88,12,0.14)"/><rect x="465.0" y="172.4" width="5.6" height="5.6" fill="rgba(234,88,12,0.15)"/><rect x="471.4" y="172.4" width="5.6" height="5.6" fill="rgba(234,88,12,0.22)"/><rect x="477.8" y="172.4" width="5.6" height="5.6" fill="rgba(234,88,12,0.18)"/><rect x="484.2" y="172.4" width="5.6" height="5.6" fill="rgba(37,99,235,0.03)"/><rect x="490.6" y="172.4" width="5.6" height="5.6" fill="rgba(234,88,12,0.41)"/><rect x="497.0" y="172.4" width="5.6" height="5.6" fill="rgba(234,88,12,0.26)"/><rect x="503.4" y="172.4" width="5.6" height="5.6" fill="rgba(37,99,235,0.04)"/><rect x="509.8" y="172.4" width="5.6" height="5.6" fill="rgba(37,99,235,0.98)"/><rect x="413.8" y="178.8" width="5.6" height="5.6" fill="rgba(37,99,235,0.32)"/><rect x="420.2" y="178.8" width="5.6" height="5.6" fill="rgba(37,99,235,0.47)"/><rect x="426.6" y="178.8" width="5.6" height="5.6" fill="rgba(234,88,12,0.60)"/><rect x="433.0" y="178.8" width="5.6" height="5.6" fill="rgba(37,99,235,0.26)"/><rect x="439.4" y="178.8" width="5.6" height="5.6" fill="rgba(37,99,235,0.11)"/><rect x="445.8" y="178.8" width="5.6" height="5.6" fill="rgba(37,99,235,0.17)"/><rect x="452.2" y="178.8" width="5.6" height="5.6" fill="rgba(37,99,235,0.52)"/><rect x="458.6" y="178.8" width="5.6" height="5.6" fill="rgba(234,88,12,0.03)"/><rect x="465.0" y="178.8" width="5.6" height="5.6" fill="rgba(37,99,235,0.38)"/><rect x="471.4" y="178.8" width="5.6" height="5.6" fill="rgba(37,99,235,0.23)"/><rect x="477.8" y="178.8" width="5.6" height="5.6" fill="rgba(37,99,235,0.66)"/><rect x="484.2" y="178.8" width="5.6" height="5.6" fill="rgba(37,99,235,0.84)"/><rect x="490.6" y="178.8" width="5.6" height="5.6" fill="rgba(37,99,235,0.50)"/><rect x="497.0" y="178.8" width="5.6" height="5.6" fill="rgba(37,99,235,0.39)"/><rect x="503.4" y="178.8" width="5.6" height="5.6" fill="rgba(37,99,235,0.94)"/><rect x="509.8" y="178.8" width="5.6" height="5.6" fill="rgba(37,99,235,0.79)"/><text x="465" y="204" font-size="9" fill="#6b7280" text-anchor="middle" font-weight="normal">128 numbers</text><line x1="524" y1="161" x2="530.0" y2="161.0" stroke="#6b7280" stroke-width="1.8"/><path d="M538 161 L530.0 165.5 L530.0 156.5 Z" fill="#6b7280"/><rect x="540" y="108" width="128" height="106" rx="10" fill="#eff6ff" stroke="#2563eb" stroke-width="1"/><text x="604.0" y="146" font-size="13" fill="#111827" text-anchor="middle" font-weight="700">lm_head</text><text x="604.0" y="162" font-size="10" fill="#374151" text-anchor="middle" font-weight="normal">65 rows of 128</text><text x="604.0" y="178" font-size="10" fill="#374151" text-anchor="middle" font-weight="normal">+ 65 biases</text><line x1="604" y1="226" x2="604.0" y2="254.0" stroke="#6b7280" stroke-width="1.8"/><path d="M604 262 L599.5 254.0 L608.5 254.0 Z" fill="#6b7280"/><rect x="360" y="264" width="320" height="130" rx="10" fill="#f9fafb" stroke="#d1d5db" stroke-width="1"/><text x="520" y="284" font-size="12" fill="#111827" text-anchor="middle" font-weight="700">65 scores (logits) for the next letter</text><line x1="520" y1="292" x2="520" y2="386" stroke="#9ca3af" stroke-width="1"/><rect x="520.0" y="297" width="58.5" height="10" rx="2" fill="#2563eb"/><text x="384" y="306" font-size="11" fill="#111827" text-anchor="middle" font-weight="700" font-family="ui-monospace, Menlo, Consolas, monospace">o</text><text x="600" y="306" font-size="10" fill="#111827" text-anchor="start" font-weight="normal" font-family="ui-monospace, Menlo, Consolas, monospace">4.878</text><rect x="520.0" y="313" width="48.9" height="10" rx="2" fill="#2563eb"/><text x="384" y="322" font-size="11" fill="#111827" text-anchor="middle" font-weight="700" font-family="ui-monospace, Menlo, Consolas, monospace">␣</text><text x="600" y="322" font-size="10" fill="#111827" text-anchor="start" font-weight="normal" font-family="ui-monospace, Menlo, Consolas, monospace">4.076</text><rect x="520.0" y="329" width="48.7" height="10" rx="2" fill="#2563eb"/><text x="384" y="338" font-size="11" fill="#111827" text-anchor="middle" font-weight="700" font-family="ui-monospace, Menlo, Consolas, monospace">d</text><text x="600" y="338" font-size="10" fill="#111827" text-anchor="start" font-weight="normal" font-family="ui-monospace, Menlo, Consolas, monospace">4.062</text><rect x="520.0" y="345" width="36.8" height="10" rx="2" fill="#2563eb"/><text x="384" y="354" font-size="11" fill="#111827" text-anchor="middle" font-weight="700" font-family="ui-monospace, Menlo, Consolas, monospace">n</text><text x="600" y="354" font-size="10" fill="#111827" text-anchor="start" font-weight="normal" font-family="ui-monospace, Menlo, Consolas, monospace">3.068</text><text x="400" y="371" font-size="10" fill="#6b7280" text-anchor="start" font-weight="normal">… 60 more</text><rect x="430.9" y="375" width="89.1" height="10" rx="2" fill="#d97706"/><text x="384" y="384" font-size="11" fill="#111827" text-anchor="middle" font-weight="700" font-family="ui-monospace, Menlo, Consolas, monospace">V</text><text x="600" y="384" font-size="10" fill="#111827" text-anchor="start" font-weight="normal" font-family="ui-monospace, Menlo, Consolas, monospace">−7.421</text><line x1="360" y1="329" x2="346.0" y2="329.0" stroke="#6b7280" stroke-width="1.8"/><path d="M338 329 L346.0 324.5 L346.0 333.5 Z" fill="#6b7280"/><rect x="40" y="264" width="296" height="130" rx="10" fill="#f9fafb" stroke="#d1d5db" stroke-width="1"/><text x="188" y="300" font-size="11" fill="#6b7280" text-anchor="middle" font-weight="normal">then, exactly as before:</text><text x="188" y="326" font-size="13" fill="#111827" text-anchor="middle" font-weight="700">temperature, top-k, softmax,</text><text x="188" y="346" font-size="13" fill="#111827" text-anchor="middle" font-weight="700">and a spin of the wheel</text><text x="188" y="374" font-size="10" fill="#9ca3af" text-anchor="middle" font-weight="normal" font-style="italic">nothing here changes</text><text x="40" y="424" font-size="12" fill="#374151" text-anchor="start" font-weight="normal">lm_head makes each score. For o: the row times the final hidden state gives 4.845, and o's bias adds 0.033: 4.878.</text></svg>