<svg xmlns="http://www.w3.org/2000/svg" viewBox="0 0 120 120" width="120" height="120">
  <circle cx="60" cy="60" r="58" fill="#1a2b4b" />
  <!-- Router -->
  <circle cx="60" cy="30" r="12" fill="#ffffff" opacity="0.92"/>
  <!-- Six specialists, each holding one document -->
  <rect x="10" y="78" width="14" height="22" rx="3" fill="#4fc3f7" opacity="0.85"/>
  <rect x="28" y="78" width="14" height="22" rx="3" fill="#80deea" opacity="0.85"/>
  <rect x="46" y="78" width="14" height="22" rx="3" fill="#4fc3f7" opacity="0.85"/>
  <rect x="64" y="78" width="14" height="22" rx="3" fill="#80deea" opacity="0.85"/>
  <rect x="82" y="78" width="14" height="22" rx="3" fill="#4fc3f7" opacity="0.85"/>
  <rect x="100" y="78" width="12" height="22" rx="3" fill="#80deea" opacity="0.85"/>
  <!-- Document lines -->
  <line x1="13" y1="85" x2="21" y2="85" stroke="#1a2b4b" stroke-width="1.5" opacity="0.7"/>
  <line x1="13" y1="90" x2="21" y2="90" stroke="#1a2b4b" stroke-width="1.5" opacity="0.7"/>
  <line x1="31" y1="85" x2="39" y2="85" stroke="#1a2b4b" stroke-width="1.5" opacity="0.7"/>
  <line x1="31" y1="90" x2="39" y2="90" stroke="#1a2b4b" stroke-width="1.5" opacity="0.7"/>
  <line x1="49" y1="85" x2="57" y2="85" stroke="#1a2b4b" stroke-width="1.5" opacity="0.7"/>
  <line x1="49" y1="90" x2="57" y2="90" stroke="#1a2b4b" stroke-width="1.5" opacity="0.7"/>
  <line x1="67" y1="85" x2="75" y2="85" stroke="#1a2b4b" stroke-width="1.5" opacity="0.7"/>
  <line x1="67" y1="90" x2="75" y2="90" stroke="#1a2b4b" stroke-width="1.5" opacity="0.7"/>
  <line x1="85" y1="85" x2="93" y2="85" stroke="#1a2b4b" stroke-width="1.5" opacity="0.7"/>
  <line x1="85" y1="90" x2="93" y2="90" stroke="#1a2b4b" stroke-width="1.5" opacity="0.7"/>
  <line x1="102" y1="85" x2="109" y2="85" stroke="#1a2b4b" stroke-width="1.5" opacity="0.7"/>
  <line x1="102" y1="90" x2="109" y2="90" stroke="#1a2b4b" stroke-width="1.5" opacity="0.7"/>
  <!-- Routing lines from the router, one highlighted -->
  <line x1="50" y1="40" x2="17" y2="76" stroke="#80deea" stroke-width="1.8" opacity="0.45"/>
  <line x1="53" y1="42" x2="35" y2="76" stroke="#80deea" stroke-width="1.8" opacity="0.45"/>
  <line x1="58" y1="43" x2="53" y2="76" stroke="#80deea" stroke-width="2.6" opacity="0.95"/>
  <line x1="62" y1="43" x2="71" y2="76" stroke="#80deea" stroke-width="1.8" opacity="0.45"/>
  <line x1="67" y1="42" x2="89" y2="76" stroke="#80deea" stroke-width="1.8" opacity="0.45"/>
  <line x1="70" y1="40" x2="106" y2="76" stroke="#80deea" stroke-width="1.8" opacity="0.45"/>
</svg>
