<svg width="260" height="145" xmlns="http://www.w3.org/2000/svg" xmlns:xlink="http://www.w3.org/1999/xlink">
 <metadata id="metadata4">image/svg+xml</metadata>
 <defs>
  <clipPath id="clipPath8">
   <path id="path10" d="m76,2l0,46l-22,0l0,23l-18.41926,0c-0.07818,0.66569 -0.14149,1.33287 -0.20574,2c-1.15116,12.53096 1.03642,24.08755 6.0625,33.96875l1.6875,3.03125c1.0114,1.81678 2.19124,3.52297 3.4375,5.1875c1.24473,1.66248 1.68572,2.58262 2.46875,3.6875c13.28866,14.93583 33.09822,22.125 55.96875,22.125c50.64836,0 93.63299,-22.43799 112.65625,-72.84375c13.49677,1.38497 26.44343,-2.07589 32.34375,-13.59375c-9.39863,-5.42366 -21.47837,-3.68527 -28.4375,-0.1875l18.4375,-52.375l-72,46l-23,0l0,-46l-69,0z"/>
  </clipPath>
 </defs>
 <g>
  <title>Layer 1</title>
  <path fill="none" stroke="#394d54" stroke-width="10.5" stroke-linecap="round" stroke-linejoin="round" id="path12" d="m467.82,113.24092l-0.0422,-25.55786l-0.12687,-45.65718m25.85406,19.67617l-25.72712,25.98101l25.85407,25.64249m-172.34647,-25.30398c0.12417,-5.48093 -1.46904,-11.08143 -4.69689,-15.61399c-4.65126,-6.53132 -12.17919,-10.9904 -20.43783,-11.08636c-0.55059,0 -1.09558,0 -1.65026,0.04225c-3.26481,0.2017 -6.42662,0.65538 -9.22453,1.81952c-18.40057,7.656 -21.66082,33.20796 -6.13558,44.76857c13.44474,10.01139 33.00155,5.92365 39.77549,-9.35147c1.43144,-3.22788 2.3696,-7.29713 2.3696,-10.57855l0,-46.20724m124.15153,22.55355c-3.80993,-2.4618 -8.25456,-3.34994 -12.65199,-3.34283c-0.47683,0 -0.96708,0.02383 -1.39637,0.04225c-12.71288,0.54677 -24.50001,9.53035 -24.50001,26.95424c0,20.6003 22.08809,31.71844 38.59069,22.00346m74.13473,-2.24266c13.00207,-11.1375 39.05614,-33.47058 39.05614,-33.47058c0,0 -0.94989,-1.79715 -1.56563,-2.62349c-5.25739,-7.05552 -13.28929,-10.5786 -21.74957,-10.57863c-20.90871,0 -36.58155,27.0365 -15.74094,46.6727c1.44301,1.35961 3.42523,2.42453 5.62781,3.34283c7.64747,3.18836 18.11655,2.92685 23.78066,-1.26943m-185.00252,-48.66144c-0.59271,0.01083 -1.18194,0.07366 -1.7772,0.08463c-15.85475,0.29136 -27.28615,16.75918 -23.82298,32.03197c3.37478,14.88296 19.63403,23.69588 33.68222,18.82988c16.35859,-4.28927 23.03061,-24.88876 14.04836,-38.80225c-4.9126,-7.60964 -13.23925,-12.3132 -22.1304,-12.14422l0,-0.00001zm240.72631,0.50778c-6.42012,0.0172 -12.67273,2.26581 -17.30656,6.60103c-7.30767,6.03132 -8.89448,13.64741 -8.80139,23.27291l0.21157,21.87652"/>
  <path fill="#394d54" id="path14" d="m147.4876,45.732l22.866,0l0,23.37473l11.56177,0c5.33905,0 10.83073,-0.95117 15.887,-2.66444c2.48448,-0.84244 5.27317,-2.01479 7.72392,-3.4892c-3.22785,-4.21436 -4.87579,-9.53574 -5.36101,-14.78106c-0.65874,-7.13426 0.78032,-16.42042 5.60897,-22.00422l2.40362,-2.78011l2.8642,2.30239c7.21138,5.79374 13.27612,13.88934 14.3451,23.11819c8.68312,-2.55411 18.87759,-1.95 26.53135,2.46735l3.14002,1.81182l-1.65276,3.2257c-6.47289,12.63337 -20.00501,16.54675 -33.23507,15.85426c-19.79715,49.30839 -62.89781,72.65259 -115.15715,72.65259c-26.9989,0 -51.76985,-10.09272 -65.87555,-34.04693c-0.82702,-1.48798 -1.53523,-3.0439 -2.28633,-4.57212c-4.76813,-10.5442 -6.3518,-22.09526 -5.27745,-33.63668l0.32241,-3.45707l19.55293,0l0,-23.37473l22.866,0l0,-22.866l45.732,0l0,-22.866l27.43967,0l0,45.732"/>
  <g id="g16" clip-path="url(#clipPath8)">
   <g id="g18">
    <g id="g20">
     <path fill="#00acd3" id="path22" d="m123.85901,-19.05492l19.81751,0l0,19.81697l-19.81751,0l0,-19.81697z"/>
     <path fill="#20c2ef" id="path24" d="m123.85901,3.81048l19.81751,0l0,19.81805l-19.81751,0l0,-19.81805z"/>
     <path stroke="#394d54" stroke-width="1.56" id="path26" d="m126.29235,-0.8891l0,-16.51575m2.97185,16.51575l0,-16.51575m3.00184,16.51575l0,-16.51575m3.00344,16.51575l0,-16.51575m3.00292,16.51575l0,-16.51575m2.97131,16.51575l0,-16.51575"/>
     <use x="0" y="22.866" xlink:href="#path26" id="use28"/>
    </g>
    <use xlink:href="#g20" id="use30" transform="matrix(1,0,0,-1,22.866,4.572651) "/>
   </g>
   <use x="-91.464" y="45.732" xlink:href="#g18" id="use32"/>
   <use x="-45.732" y="45.732" xlink:href="#g18" id="use34"/>
   <use x="0" y="45.732" xlink:href="#g18" id="use36"/>
  </g>
  <path fill="#17b5eb" id="path38" clip-path="url(#clipPath8)" d="m221.57014,54.37965c1.53332,-11.91525 -7.38383,-21.27478 -12.91407,-25.71836c-6.37269,7.36776 -7.36295,26.67755 2.63498,34.80743c-5.57952,4.95612 -17.33731,9.44844 -29.37574,9.44844l-147.91531,-0.00001c-1.17074,12.56703 0,73.08285 0,73.08285l217,0l-0.98657,-91.424c-9.39863,-5.42367 -21.48419,-3.69433 -28.44332,-0.19655"/>
  <path fill-opacity="0.17" id="path40" clip-path="url(#clipPath8)" d="m34,89l0,57l217,0l0,-57"/>
  <path fill="#d4edf1" id="path42" clip-path="url(#clipPath8)" d="m111.23736,140.88997c-13.53962,-6.42517 -20.97165,-15.15916 -25.10675,-24.69435l-41.13061,1.80438l21,28l45.23736,-5.11003"/>
  <path fill-opacity="0.085" id="path44" clip-path="url(#clipPath8)" d="m222.5,53.9375l0,0.03125c-20.86119,26.88914 -50.78312,50.37872 -82.90625,62.71875c-28.65478,11.00767 -53.63838,11.06039 -70.875,2.21875c-1.85607,-1.04832 -3.6757,-2.21152 -5.5,-3.3125c-12.63665,-8.832 -19.75448,-23.44144 -19.15625,-42.6875l-10.0625,0l0,73.09375l217,0l0,-96l-25,0l-3.5,3.9375z"/>
  <path fill="none" stroke="#394d54" stroke-width="3.4" stroke-linecap="round" id="path46" d="m45.625,117.03125c14.16515,0.77531 29.28245,0.91433 42.46875,-3.21875"/>
  <path fill="#d4edf1" id="path48" d="m102.17024,106.95926c0,3.01898 -2.44753,5.46651 -5.46651,5.46651c-3.01951,0 -5.46758,-2.44753 -5.46758,-5.46651c0,-3.01897 2.44807,-5.46758 5.46758,-5.46758c3.01898,0 5.46651,2.44861 5.46651,5.46758z"/>
  <path fill="#394d54" id="path50" d="m98.12137,103.30778c-0.47719,0.27582 -0.80013,0.79264 -0.80013,1.3839c0,0.88261 0.71551,1.59706 1.59812,1.59706c0.60466,0 1.13005,-0.3358 1.40158,-0.83174c0.19173,0.4622 0.29831,0.96991 0.29831,1.50226c0,2.16208 -1.75291,3.91498 -3.91552,3.91498c-2.16207,0 -3.91605,-1.7529 -3.91605,-3.91498c0,-2.16314 1.75398,-3.91658 3.91605,-3.91658c0.50022,0 0.97741,0.0943 1.41764,0.2651z"/>
  <path fill="#394d54" id="path52" d="m0,90.16234l254.32743,0c-5.53774,-1.40478 -17.521,-3.30229 -15.54477,-10.55973c-10.06915,11.65175 -34.35274,8.17433 -40.4812,2.42879c-6.82471,9.89831 -46.55451,6.13596 -49.32553,-1.5751c-8.55565,10.04077 -35.06718,10.04077 -43.62336,0c-2.77209,7.71106 -42.50136,11.47341 -49.32659,1.5751c-6.12847,5.74554 -30.40991,9.22296 -40.48014,-2.42879c1.97624,7.25744 -10.00703,9.15495 -15.54584,10.55973"/>
 </g>
</svg>