<?xml version="1.0" encoding="UTF-8" standalone="no"?>
<!DOCTYPE svg PUBLIC "-//W3C//DTD SVG 1.1//EN" "http://www.w3.org/Graphics/SVG/1.1/DTD/svg11.dtd">
<svg version="1.1" xmlns="http://www.w3.org/2000/svg" xmlns:xlink="http://www.w3.org/1999/xlink" preserveAspectRatio="xMidYMid meet" viewBox="0 0 70 70" width="70" height="70"><defs><path d="M22.21 56.28C22.21 56.28 22.91 55.98 23.81 55.67C31.16 53.13 34.63 52.62 39.1 50.32C47.49 46.03 55.84 36.66 57.54 26.94C54.35 36.29 44.63 44.34 35.79 47.61C29.74 49.85 18.79 52.02 18.79 52.02C18.79 52.03 18.35 51.79 18.35 51.79C10.9 48.16 10.69 32.04 24.21 26.84C30.13 24.56 35.81 25.82 42.21 24.29C49.05 22.66 56.96 17.54 60.18 10.84C63.79 21.54 68.12 38.28 60.35 48.63C52.71 58.81 36.39 55.38 25.93 55.87C25.19 55.95 24.07 55.97 22.21 56.28ZM60.48 7.53C59.57 9.69 58.46 11.64 57.18 13.38C51.55 7.6 43.69 4 35 4C17.91 4 4 17.9 4 34.99C4 43.95 7.83 52.03 13.92 57.69C13.99 57.75 14.53 58.23 14.6 58.29C13.47 57.37 13.29 55.71 14.21 54.57C15.14 53.44 16.8 53.26 17.94 54.18C19.08 55.1 19.25 56.77 18.33 57.91C17.41 59.04 15.74 59.22 14.61 58.3C14.65 58.34 15.02 58.67 15.07 58.71C20.46 63.25 27.41 65.99 35 65.99C51.34 65.99 64.75 53.28 65.9 37.23C66.75 29.37 64.43 19.39 60.48 7.53" id="iIqqFo0uf"></path><path d="M22.21 56.28C22.21 56.28 22.91 55.98 23.81 55.67C31.16 53.13 34.63 52.62 39.1 50.32C47.49 46.03 55.84 36.66 57.54 26.94C54.35 36.29 44.63 44.34 35.79 47.61C29.74 49.85 18.79 52.02 18.79 52.02C18.79 52.03 18.35 51.79 18.35 51.79C10.9 48.16 10.69 32.04 24.21 26.84C30.13 24.56 35.81 25.82 42.21 24.29C49.05 22.66 56.96 17.54 60.18 10.84C63.79 21.54 68.12 38.28 60.35 48.63C52.71 58.81 36.39 55.38 25.93 55.87C25.19 55.95 24.07 55.97 22.21 56.28ZM60.48 7.53C59.57 9.69 58.46 11.64 57.18 13.38C51.55 7.6 43.69 4 35 4C17.91 4 4 17.9 4 34.99C4 43.95 7.83 52.03 13.92 57.69C13.99 57.75 14.53 58.23 14.6 58.29C13.47 57.37 13.29 55.71 14.21 54.57C15.14 53.44 16.8 53.26 17.94 54.18C19.08 55.1 19.25 56.77 18.33 57.91C17.41 59.04 15.74 59.22 14.61 58.3C14.65 58.34 15.02 58.67 15.07 58.71C20.46 63.25 27.41 65.99 35 65.99C51.34 65.99 64.75 53.28 65.9 37.23C66.75 29.37 64.43 19.39 60.48 7.53" id="cdQ3cp4RY"></path></defs><g><g><g><use xlink:href="#iIqqFo0uf" opacity="1" fill="#5fb832" fill-opacity="1"></use><g><use xlink:href="#iIqqFo0uf" opacity="1" fill-opacity="0" stroke="#000000" stroke-width="1" stroke-opacity="0"></use></g></g><g><use xlink:href="#cdQ3cp4RY" opacity="1" fill="#000000" fill-opacity="0"></use><g><use xlink:href="#cdQ3cp4RY" opacity="1" fill-opacity="0" stroke="#000000" stroke-width="1" stroke-opacity="0"></use></g></g></g></g></svg>